# xmcd
#
# Track frame offsets:
#	150
#	14149
#	28869
#	41506
#	59323
#	74962
#	89109
#	100785
#	114843
#	128441
#	144777
#	159674
#	175988
#	189333
#	203997
#	215917
#	231034
#	245387
#	262315
#	279410
#	295140
#
# Disc length: 4162 seconds
#
# Revision: 2
# Processed by: cddbd v1.5PL3 Copyright (c) Steve Scherf et al.
# Submitted via: audiograbber 1.83.01
#
DISCID=43104015
DTITLE=Various Artist - Sertanejo Alternativo Vol. 02
DYEAR=2002
DGENRE=Country
TTITLE0=Belmonte and Amarai - Saudade de Minha Terra
TTITLE1=Ze Carreiro and Carreirinho - Peito Sadio
TTITLE2=Tibagi and Miltinho - Pe de Cedro
TTITLE3=Bia and Dino Franco - A Sementinha
TTITLE4=Liu and Leo - Ipe e o Prisioneiro
TTITLE5=Valdery and Mizael - O Carro e a Faculdade
TTITLE6=Bia and Dino Franco - Baldrana Macia
TTITLE7=Nenete and Dorinho - Goiano Valente
TTITLE8=Tiao Carreiro and Pardinho - Encanto da Natureza
TTITLE9=Moreno and Moreninho - João Boiadeiro
TTITLE10=Liu and Leo - Boiadeiro Errante
TTITLE11=Pedro Bento and Ze da Estrada - Magoa de Boiadeiro
TTITLE12=Nenete and Dorinho - Recordação
TTITLE13=Dino Franco and Morai - Caboclo na Cidade
TTITLE14=Tibagi and Miltinho - Passarinho do Peito Amarelo
TTITLE15=Luizinho and Limeira - O Menino da Porteira
TTITLE16=Ze Carreiro and Carreirinho - Canoeiro
TTITLE17=Palmeira and Sabia - Couro de Boi
TTITLE18=Sergio Reis - Filho Adotivo
TTITLE19=Juno and Julio - Filho Prodígio
TTITLE20=Leo Canhoto and Robertinho - O Ultimo Julgamento
EXTD=
EXTT0=
EXTT1=
EXTT2=
EXTT3=
EXTT4=
EXTT5=
EXTT6=
EXTT7=
EXTT8=
EXTT9=
EXTT10=
EXTT11=
EXTT12=
EXTT13=
EXTT14=
EXTT15=
EXTT16=
EXTT17=
EXTT18=
EXTT19=
EXTT20=
PLAYORDER=
